<?xml version="1.0" standalone="no"?>
<svg xmlns:xlink="http://www.w3.org/1999/xlink" id="wave" style="transform:rotate(180deg); transition: 0.3s" viewBox="0 0 1440 490" version="1.1" xmlns="http://www.w3.org/2000/svg"><defs><linearGradient id="sw-gradient-0" x1="0" x2="0" y1="1" y2="0"><stop stop-color="rgba(88, 39, 4, 1)" offset="0%"/><stop stop-color="rgba(162, 92, 26, 1)" offset="100%"/></linearGradient></defs><path style="transform:translate(0, 0px); opacity:1" fill="url(#sw-gradient-0)" d="M0,392L16,326.7C32,261,64,131,96,89.8C128,49,160,98,192,163.3C224,229,256,310,288,310.3C320,310,352,229,384,212.3C416,196,448,245,480,277.7C512,310,544,327,576,285.8C608,245,640,147,672,138.8C704,131,736,212,768,253.2C800,294,832,294,864,318.5C896,343,928,392,960,408.3C992,425,1024,408,1056,375.7C1088,343,1120,294,1152,228.7C1184,163,1216,82,1248,98C1280,114,1312,229,1344,253.2C1376,278,1408,212,1440,204.2C1472,196,1504,245,1536,294C1568,343,1600,392,1632,400.2C1664,408,1696,376,1728,334.8C1760,294,1792,245,1824,212.3C1856,180,1888,163,1920,204.2C1952,245,1984,343,2016,375.7C2048,408,2080,376,2112,367.5C2144,359,2176,376,2208,326.7C2240,278,2272,163,2288,106.2L2304,49L2304,490L2288,490C2272,490,2240,490,2208,490C2176,490,2144,490,2112,490C2080,490,2048,490,2016,490C1984,490,1952,490,1920,490C1888,490,1856,490,1824,490C1792,490,1760,490,1728,490C1696,490,1664,490,1632,490C1600,490,1568,490,1536,490C1504,490,1472,490,1440,490C1408,490,1376,490,1344,490C1312,490,1280,490,1248,490C1216,490,1184,490,1152,490C1120,490,1088,490,1056,490C1024,490,992,490,960,490C928,490,896,490,864,490C832,490,800,490,768,490C736,490,704,490,672,490C640,490,608,490,576,490C544,490,512,490,480,490C448,490,416,490,384,490C352,490,320,490,288,490C256,490,224,490,192,490C160,490,128,490,96,490C64,490,32,490,16,490L0,490Z"/><defs><linearGradient id="sw-gradient-1" x1="0" x2="0" y1="1" y2="0"><stop stop-color="rgba(162, 92, 26, 1)" offset="0%"/><stop stop-color="rgba(138, 58, 9, 1)" offset="100%"/></linearGradient></defs><path style="transform:translate(0, 50px); opacity:0.9" fill="url(#sw-gradient-1)" d="M0,294L16,245C32,196,64,98,96,73.5C128,49,160,98,192,155.2C224,212,256,278,288,326.7C320,376,352,408,384,367.5C416,327,448,212,480,187.8C512,163,544,229,576,228.7C608,229,640,163,672,114.3C704,65,736,33,768,24.5C800,16,832,33,864,65.3C896,98,928,147,960,187.8C992,229,1024,261,1056,236.8C1088,212,1120,131,1152,114.3C1184,98,1216,147,1248,138.8C1280,131,1312,65,1344,106.2C1376,147,1408,294,1440,334.8C1472,376,1504,310,1536,277.7C1568,245,1600,245,1632,212.3C1664,180,1696,114,1728,106.2C1760,98,1792,147,1824,138.8C1856,131,1888,65,1920,32.7C1952,0,1984,0,2016,65.3C2048,131,2080,261,2112,326.7C2144,392,2176,392,2208,351.2C2240,310,2272,229,2288,187.8L2304,147L2304,490L2288,490C2272,490,2240,490,2208,490C2176,490,2144,490,2112,490C2080,490,2048,490,2016,490C1984,490,1952,490,1920,490C1888,490,1856,490,1824,490C1792,490,1760,490,1728,490C1696,490,1664,490,1632,490C1600,490,1568,490,1536,490C1504,490,1472,490,1440,490C1408,490,1376,490,1344,490C1312,490,1280,490,1248,490C1216,490,1184,490,1152,490C1120,490,1088,490,1056,490C1024,490,992,490,960,490C928,490,896,490,864,490C832,490,800,490,768,490C736,490,704,490,672,490C640,490,608,490,576,490C544,490,512,490,480,490C448,490,416,490,384,490C352,490,320,490,288,490C256,490,224,490,192,490C160,490,128,490,96,490C64,490,32,490,16,490L0,490Z"/></svg>