<svg width="208" height="45" viewBox="0 0 208 45" fill="none" xmlns="http://www.w3.org/2000/svg">
<path d="M25.75 17.95C26.3833 16.3167 26.55 14.95 26.25 13.85C25.9833 12.75 25.4 11.9167 24.5 11.35C23.6 10.75 22.4833 10.4167 21.15 10.35C19.8167 10.25 18.4333 10.4167 17 10.85C15.6 11.25 14.2167 11.9167 12.85 12.85C11.5167 13.75 10.4 14.9 9.5 16.3C8.6 17.7 7.98333 19.35 7.65 21.25C7.31667 23.15 7.46667 25.2833 8.1 27.65C8.53333 29.25 9.25 30.5333 10.25 31.5C11.25 32.4667 12.3833 33.1667 13.65 33.6C14.95 34.0333 16.3333 34.2167 17.8 34.15C19.3 34.05 20.7167 33.7667 22.05 33.3C23.4167 32.8 24.6667 32.1333 25.8 31.3C26.9333 30.4667 27.8167 29.5 28.45 28.4C28.8833 27.6667 29.4167 27.1667 30.05 26.9C30.6833 26.6 31.3333 26.5167 32 26.65C32.7 26.7833 33.3667 27.1 34 27.6C34.6667 28.0667 35.2333 28.7 35.7 29.5C36.1667 30.2667 36.5 31.1667 36.7 32.2C36.9333 33.2 36.95 34.3 36.75 35.5C36.45 37.3333 35.6 38.9333 34.2 40.3C32.8 41.7 31.0833 42.7667 29.05 43.5C27.0167 44.2667 24.7667 44.6667 22.3 44.7C19.8333 44.7667 17.3833 44.3833 14.95 43.55C12.55 42.75 10.2667 41.45 8.1 39.65C5.93333 37.8833 4.11667 35.55 2.65 32.65C1.65 30.6167 0.966667 28.4833 0.6 26.25C0.266667 23.9833 0.266667 21.75 0.6 19.55C0.933333 17.3167 1.61667 15.1667 2.65 13.1C3.68333 11.0333 5.06667 9.18333 6.8 7.55C8.53333 5.91666 10.6167 4.56666 13.05 3.5C15.4833 2.4 18.2667 1.7 21.4 1.4C24.5333 1.1 27.3 1.23333 29.7 1.8C32.1 2.33333 34.1333 3.15 35.8 4.25C37.4667 5.31667 38.7833 6.56667 39.75 8C40.7167 9.43333 41.3333 10.9 41.6 12.4C41.9 13.9 41.8667 15.35 41.5 16.75C41.1333 18.1167 40.45 19.2833 39.45 20.25C38.45 21.2167 37.3667 21.9333 36.2 22.4C35.0667 22.8667 33.9333 23.15 32.8 23.25C31.7 23.3167 30.65 23.2167 29.65 22.95C28.6833 22.6833 27.85 22.3 27.15 21.8C26.4833 21.3 26 20.7167 25.7 20.05C25.4333 19.3833 25.45 18.6833 25.75 17.95ZM70.0504 21.95C70.4504 23.4833 70.6004 25.0333 70.5004 26.6C70.4337 28.1333 70.1004 29.5333 69.5004 30.8C68.9004 32.0333 68.0337 33.05 66.9004 33.85C65.8004 34.6167 64.4337 35 62.8004 35C61.6004 35 60.5671 34.8333 59.7004 34.5C58.8337 34.1667 58.1004 33.75 57.5004 33.25C56.9337 32.7167 56.5004 32.1333 56.2004 31.5C55.9004 30.8333 55.7337 30.1667 55.7004 29.5C55.6671 30.1667 55.4671 30.8333 55.1004 31.5C54.7337 32.1667 54.2337 32.7667 53.6004 33.3C53.0004 33.8333 52.2671 34.2667 51.4004 34.6C50.5671 34.9333 49.6504 35.0667 48.6504 35C47.3837 34.9333 46.2337 34.65 45.2004 34.15C44.2004 33.6167 43.3504 32.9167 42.6504 32.05C41.9837 31.1833 41.5004 30.1833 41.2004 29.05C40.8671 27.8833 40.7671 26.6167 40.9004 25.25C41.0671 23.5833 41.4504 22.1333 42.0504 20.9C42.6504 19.6667 43.3504 18.65 44.1504 17.85C44.9837 17.05 45.8671 16.4667 46.8004 16.1C47.7337 15.7333 48.6337 15.55 49.5004 15.55C50.3671 15.55 51.1171 15.65 51.7504 15.85C52.3837 16.0167 52.9337 16.25 53.4004 16.55C53.8671 16.85 54.2837 17.2 54.6504 17.6C55.0171 17.9667 55.3504 18.3333 55.6504 18.7C56.2504 17.6333 57.1004 16.8167 58.2004 16.25C59.3337 15.65 60.6837 15.4167 62.2504 15.55C64.0837 15.7167 65.3004 16.35 65.9004 17.45C66.5004 18.5167 66.6337 20.1333 66.3004 22.3C66.1671 23.1667 66.2171 23.8333 66.4504 24.3C66.6837 24.7333 67.0004 24.95 67.4004 24.95C67.8337 24.95 68.2837 24.7167 68.7504 24.25C69.2504 23.75 69.6837 22.9833 70.0504 21.95ZM53.7004 25.65C54.1337 25.65 54.5171 25.4833 54.8504 25.15C55.2171 24.7833 55.4004 24.2167 55.4004 23.45C55.4337 22.65 55.2837 22.05 54.9504 21.65C54.6504 21.2167 54.2337 21 53.7004 21C53.1671 21 52.7337 21.2167 52.4004 21.65C52.1004 22.05 51.9671 22.65 52.0004 23.45C52.0004 24.2167 52.1671 24.7833 52.5004 25.15C52.8671 25.4833 53.2671 25.65 53.7004 25.65ZM70.0684 23.85C70.0017 23.05 70.0184 22.15 70.1184 21.15C70.2517 20.15 70.5184 19.2167 70.9184 18.35C71.3517 17.4833 71.985 16.7667 72.8184 16.2C73.685 15.6333 74.835 15.3833 76.2684 15.45C77.2017 15.5167 78.035 15.7333 78.7684 16.1C79.535 16.4667 80.0517 17.0833 80.3184 17.95C80.785 17.2833 81.335 16.7167 81.9684 16.25C82.635 15.7833 83.385 15.4667 84.2184 15.3C85.4184 15.0667 86.435 15.05 87.2684 15.25C88.1017 15.45 88.7684 15.8167 89.2684 16.35C89.7684 16.8833 90.085 17.55 90.2184 18.35C90.385 19.1167 90.385 19.95 90.2184 20.85C90.0517 21.6833 90.0684 22.35 90.2684 22.85C90.5017 23.35 90.8184 23.6667 91.2184 23.8C91.6184 23.9 92.0517 23.8167 92.5184 23.55C93.0184 23.25 93.4517 22.7167 93.8184 21.95C94.285 23.3833 94.335 24.6333 93.9684 25.7C93.6017 26.7667 93.0017 27.6333 92.1684 28.3C91.3684 28.9333 90.4184 29.3667 89.3184 29.6C88.2184 29.8333 87.1684 29.8333 86.1684 29.6C85.1684 29.3333 84.3017 28.85 83.5684 28.15C82.8684 27.4167 82.485 26.4167 82.4184 25.15C82.385 24.75 82.285 24.4333 82.1184 24.2C81.9517 23.9333 81.7684 23.8833 81.5684 24.05C81.4017 24.1833 81.2517 24.6 81.1184 25.3C80.985 26 80.9684 27.1 81.0684 28.6C81.0684 29.1 81.1017 29.7167 81.1684 30.45C81.235 31.15 81.2184 31.85 81.1184 32.55C81.0517 33.2167 80.835 33.8 80.4684 34.3C80.1017 34.7667 79.485 35 78.6184 35C77.6184 35 76.635 34.8667 75.6684 34.6C74.7017 34.3 73.835 33.75 73.0684 32.95C72.3017 32.1167 71.6517 30.9833 71.1184 29.55C70.585 28.0833 70.235 26.1833 70.0684 23.85ZM122.199 21.95C122.599 23.4833 122.749 25.0333 122.649 26.6C122.582 28.1333 122.249 29.5333 121.649 30.8C121.049 32.0333 120.182 33.05 119.049 33.85C117.949 34.6167 116.582 35 114.949 35C113.749 35 112.715 34.8333 111.849 34.5C110.982 34.1667 110.249 33.75 109.649 33.25C109.082 32.7167 108.649 32.1333 108.349 31.5C108.049 30.8333 107.882 30.1667 107.849 29.5C107.815 30.1667 107.615 30.8333 107.249 31.5C106.882 32.1667 106.382 32.7667 105.749 33.3C105.149 33.8333 104.415 34.2667 103.549 34.6C102.715 34.9333 101.799 35.0667 100.799 35C99.5322 34.9333 98.3822 34.65 97.3488 34.15C96.3488 33.6167 95.4988 32.9167 94.7988 32.05C94.1322 31.1833 93.6488 30.1833 93.3488 29.05C93.0155 27.8833 92.9155 26.6167 93.0488 25.25C93.2155 23.5833 93.5988 22.1333 94.1988 20.9C94.7988 19.6667 95.4988 18.65 96.2988 17.85C97.1322 17.05 98.0155 16.4667 98.9488 16.1C99.8822 15.7333 100.782 15.55 101.649 15.55C102.515 15.55 103.265 15.65 103.899 15.85C104.532 16.0167 105.082 16.25 105.549 16.55C106.015 16.85 106.432 17.2 106.799 17.6C107.165 17.9667 107.499 18.3333 107.799 18.7C108.399 17.6333 109.249 16.8167 110.349 16.25C111.482 15.65 112.832 15.4167 114.399 15.55C116.232 15.7167 117.449 16.35 118.049 17.45C118.649 18.5167 118.782 20.1333 118.449 22.3C118.315 23.1667 118.365 23.8333 118.599 24.3C118.832 24.7333 119.149 24.95 119.549 24.95C119.982 24.95 120.432 24.7167 120.899 24.25C121.399 23.75 121.832 22.9833 122.199 21.95ZM105.849 25.65C106.282 25.65 106.665 25.4833 106.999 25.15C107.365 24.7833 107.549 24.2167 107.549 23.45C107.582 22.65 107.432 22.05 107.099 21.65C106.799 21.2167 106.382 21 105.849 21C105.315 21 104.882 21.2167 104.549 21.65C104.249 22.05 104.115 22.65 104.149 23.45C104.149 24.2167 104.315 24.7833 104.649 25.15C105.015 25.4833 105.415 25.65 105.849 25.65ZM161.567 21.95C161.967 23.4833 162.117 25.0333 162.017 26.6C161.95 28.1333 161.617 29.5333 161.017 30.8C160.417 32.0333 159.55 33.05 158.417 33.85C157.317 34.6167 155.95 35 154.317 35C152.717 35 151.417 34.8 150.417 34.4C149.45 33.9667 148.717 33.4167 148.217 32.75C147.717 32.0833 147.4 31.35 147.267 30.55C147.167 29.7167 147.167 28.8833 147.267 28.05C147.333 27.3167 147.233 26.7833 146.967 26.45C146.7 26.0833 146.383 25.9333 146.017 26C145.683 26.0667 145.383 26.35 145.117 26.85C144.883 27.3167 144.833 28 144.967 28.9C145.1 29.8 145.15 30.6333 145.117 31.4C145.117 32.1333 144.967 32.7667 144.667 33.3C144.367 33.8333 143.883 34.25 143.217 34.55C142.583 34.85 141.683 35 140.517 35C139.45 35 138.567 34.8333 137.867 34.5C137.167 34.1333 136.617 33.6333 136.217 33C135.817 32.3667 135.567 31.6333 135.467 30.8C135.367 29.9667 135.383 29.05 135.517 28.05C135.617 27.3167 135.55 26.7833 135.317 26.45C135.083 26.0833 134.8 25.9333 134.467 26C134.133 26.0333 133.833 26.3 133.567 26.8C133.3 27.3 133.2 28.0333 133.267 29C133.333 29.8667 133.367 30.6667 133.367 31.4C133.4 32.1333 133.333 32.7667 133.167 33.3C133.033 33.8333 132.767 34.25 132.367 34.55C132 34.85 131.45 35 130.717 35C129.717 35 128.733 34.8667 127.767 34.6C126.833 34.3 125.983 33.75 125.217 32.95C124.45 32.1167 123.8 30.9833 123.267 29.55C122.733 28.0833 122.383 26.1833 122.217 23.85C122.15 23.05 122.167 22.15 122.267 21.15C122.4 20.15 122.667 19.2167 123.067 18.35C123.5 17.4833 124.133 16.7667 124.967 16.2C125.833 15.6333 126.983 15.3833 128.417 15.45C128.983 15.4833 129.533 15.5833 130.067 15.75C130.6 15.8833 131.05 16.1167 131.417 16.45C131.817 16.75 132.117 17.15 132.317 17.65C132.55 18.1167 132.65 18.7167 132.617 19.45C133.283 18.4833 134.117 17.6333 135.117 16.9C136.15 16.1667 137.25 15.6833 138.417 15.45C140.017 15.1833 141.4 15.3833 142.567 16.05C143.767 16.7167 144.55 17.5833 144.917 18.65C145.583 17.8833 146.35 17.2167 147.217 16.65C148.117 16.05 149.1 15.65 150.167 15.45C151.333 15.25 152.4 15.2667 153.367 15.5C154.333 15.7333 155.15 16.1667 155.817 16.8C156.517 17.4 157.033 18.1667 157.367 19.1C157.733 20.0333 157.883 21.1 157.817 22.3C157.75 23.1667 157.85 23.8333 158.117 24.3C158.383 24.7333 158.7 24.95 159.067 24.95C159.467 24.95 159.883 24.7167 160.317 24.25C160.783 23.75 161.2 22.9833 161.567 21.95ZM178.422 18.5C178.889 19.2 179.089 20 179.022 20.9C178.956 21.8 178.656 22.65 178.122 23.45C177.622 24.2167 176.906 24.8667 175.972 25.4C175.039 25.9 173.922 26.1167 172.622 26.05C173.089 26.4167 173.739 26.6 174.572 26.6C175.906 26.6 177.172 26.2 178.372 25.4C179.572 24.5667 180.422 23.4167 180.922 21.95C181.356 23.3167 181.472 24.9167 181.272 26.75C180.972 29.3833 179.906 31.4167 178.072 32.85C176.272 34.2833 174.006 35 171.272 35C168.539 35 166.256 34.2833 164.422 32.85C162.622 31.4167 161.572 29.3833 161.272 26.75C161.072 25.05 161.156 23.5167 161.522 22.15C161.889 20.75 162.506 19.5667 163.372 18.6C164.239 17.6 165.339 16.8333 166.672 16.3C168.006 15.7333 169.539 15.45 171.272 15.45C172.906 15.45 174.339 15.7 175.572 16.2C176.806 16.7 177.756 17.4667 178.422 18.5ZM174.922 22.6C174.956 22.3333 174.889 22.1167 174.722 21.95C174.589 21.75 174.389 21.6167 174.122 21.55C173.889 21.45 173.639 21.4333 173.372 21.5C173.106 21.5333 172.856 21.65 172.622 21.85C172.356 22.0167 172.156 22.2667 172.022 22.6C171.889 22.9333 171.789 23.3 171.722 23.7C172.489 23.8667 173.189 23.8833 173.822 23.75C174.489 23.5833 174.856 23.2 174.922 22.6ZM196.658 21.95C197.058 23.4833 197.208 25.0333 197.108 26.6C197.042 28.1333 196.708 29.5333 196.108 30.8C195.508 32.0333 194.642 33.05 193.508 33.85C192.408 34.6167 191.042 35 189.408 35C188.175 35 187.075 34.7833 186.108 34.35C185.142 33.8833 184.308 33.1333 183.608 32.1C182.908 31.0333 182.325 29.65 181.858 27.95C181.392 26.2167 181.058 24.1 180.858 21.6C180.392 15.5667 180.925 11.1 182.458 8.2C183.992 5.3 186.542 3.85 190.108 3.85C191.742 3.85 192.975 4.11666 193.808 4.65C194.675 5.15 195.242 5.83333 195.508 6.7C195.808 7.56667 195.875 8.58333 195.708 9.75C195.575 10.8833 195.342 12.0833 195.008 13.35C194.675 14.6167 194.308 15.9 193.908 17.2C193.508 18.5 193.192 19.75 192.958 20.95C192.725 22.1167 192.708 23.0167 192.908 23.65C193.142 24.2833 193.475 24.65 193.908 24.75C194.342 24.85 194.808 24.6667 195.308 24.2C195.842 23.7333 196.292 22.9833 196.658 21.95ZM202.78 26.45C204.313 26.45 205.463 26.9 206.23 27.8C207.03 28.6667 207.346 29.85 207.18 31.35C207.046 32.5167 206.58 33.4167 205.78 34.05C204.98 34.6833 203.98 35 202.78 35C201.613 35 200.63 34.6833 199.83 34.05C199.03 33.4167 198.563 32.5167 198.43 31.35C198.263 29.85 198.563 28.6667 199.33 27.8C200.13 26.9 201.28 26.45 202.78 26.45Z" fill="url(#paint0_linear_685_639)"/>
<defs>
<linearGradient id="paint0_linear_685_639" x1="105" y1="-3" x2="105" y2="47" gradientUnits="userSpaceOnUse">
<stop stop-color="#FDD196"/>
<stop offset="1" stop-color="#CC7C3D"/>
</linearGradient>
</defs>
</svg>
